<svg width="16" height="15" viewBox="0 0 16 15" fill="none" xmlns="http://www.w3.org/2000/svg">
<g clip-path="url(#clip0_416_931)">
<path d="M6.61719 0.354492H8.96094C9.35059 0.354492 9.66406 0.64707 9.66406 1.01074V5.60449H12.2334C12.7549 5.60449 13.0156 6.19238 12.6465 6.53691L8.19043 10.6986C7.9707 10.9037 7.61035 10.9037 7.39062 10.6986L2.92871 6.53691C2.55957 6.19238 2.82031 5.60449 3.3418 5.60449H5.91406V1.01074C5.91406 0.64707 6.22754 0.354492 6.61719 0.354492ZM15.2891 10.6357V13.6982C15.2891 14.0619 14.9756 14.3545 14.5859 14.3545H0.992188C0.602539 14.3545 0.289062 14.0619 0.289062 13.6982V10.6357C0.289062 10.2721 0.602539 9.97949 0.992188 9.97949H5.29004L6.72559 11.3193C7.31445 11.8689 8.26367 11.8689 8.85254 11.3193L10.2881 9.97949H14.5859C14.9756 9.97949 15.2891 10.2721 15.2891 10.6357ZM11.6562 13.042C11.6562 12.7412 11.3926 12.4951 11.0703 12.4951C10.748 12.4951 10.4844 12.7412 10.4844 13.042C10.4844 13.3428 10.748 13.5889 11.0703 13.5889C11.3926 13.5889 11.6562 13.3428 11.6562 13.042ZM13.5312 13.042C13.5312 12.7412 13.2676 12.4951 12.9453 12.4951C12.623 12.4951 12.3594 12.7412 12.3594 13.042C12.3594 13.3428 12.623 13.5889 12.9453 13.5889C13.2676 13.5889 13.5312 13.3428 13.5312 13.042Z" fill="white"/>
</g>
<defs>
<clipPath id="clip0_416_931">
<rect width="15" height="14" fill="white" transform="translate(0.289062 0.354492)"/>
</clipPath>
</defs>
</svg>
