<svg width="17" height="17" viewBox="0 0 17 17" fill="none" xmlns="http://www.w3.org/2000/svg">
<path fill-rule="evenodd" clip-rule="evenodd" d="M6.76904 11.5596C8.09513 11.5596 9.36689 11.0328 10.3046 10.0951C11.2423 9.15742 11.769 7.88565 11.769 6.55957C11.769 5.23349 11.2423 3.96172 10.3046 3.02404C9.36689 2.08635 8.09513 1.55957 6.76904 1.55957C5.44296 1.55957 4.17119 2.08635 3.23351 3.02404C2.29583 3.96172 1.76904 5.23349 1.76904 6.55957C1.76904 7.88565 2.29583 9.15742 3.23351 10.0951C4.17119 11.0328 5.44296 11.5596 6.76904 11.5596ZM6.76904 13.0596C8.49295 13.0596 10.1463 12.3748 11.3652 11.1558C12.5842 9.93678 13.269 8.28348 13.269 6.55957C13.269 4.83566 12.5842 3.18236 11.3652 1.96338C10.1463 0.74439 8.49295 0.0595703 6.76904 0.0595703C5.04514 0.0595703 3.39184 0.74439 2.17285 1.96338C0.953862 3.18236 0.269043 4.83566 0.269043 6.55957C0.269043 8.28348 0.953862 9.93678 2.17285 11.1558C3.39184 12.3748 5.04514 13.0596 6.76904 13.0596Z" fill="white" fill-opacity="0.55"/>
<path d="M11.895 12.7465L12.953 11.6885L16.135 14.8695C16.2288 14.9632 16.2814 15.0904 16.2814 15.223C16.2814 15.3556 16.2288 15.4827 16.135 15.5765L15.785 15.9285C15.7386 15.975 15.6834 16.012 15.6227 16.0372C15.5619 16.0624 15.4968 16.0754 15.431 16.0754C15.3653 16.0754 15.3001 16.0624 15.2394 16.0372C15.1786 16.012 15.1235 15.975 15.077 15.9285L11.895 12.7465Z" fill="#BBB9C7"/>
</svg>
