<svg width="36" height="36" viewBox="0 0 36 36" fill="none" xmlns="http://www.w3.org/2000/svg">
<circle cx="17.8027" cy="18.3848" r="17.5" fill="#2F3031"/>
<path d="M11.9107 16.6088C11.9747 15.6914 12.2734 14.9021 12.8067 14.2408C13.3401 13.5688 14.0441 13.0514 14.9187 12.6888C15.8041 12.3261 16.8067 12.1448 17.9267 12.1448C18.9934 12.1448 19.9267 12.3101 20.7267 12.6408C21.5267 12.9608 22.1507 13.4141 22.5987 14.0008C23.0467 14.5874 23.2707 15.2701 23.2707 16.0488C23.2707 16.6461 23.1161 17.2008 22.8067 17.7128C22.4974 18.2248 22.0014 18.7421 21.3187 19.2648C20.6467 19.7768 19.7507 20.3314 18.6307 20.9288L14.9987 22.9288L14.7907 22.1928H23.6067V24.3848H12.0867V22.4648L17.2227 19.4568C18.0761 18.9661 18.7427 18.5448 19.2227 18.1928C19.7027 17.8301 20.0441 17.4941 20.2467 17.1848C20.4494 16.8754 20.5507 16.5448 20.5507 16.1928C20.5507 15.8194 20.4494 15.4888 20.2467 15.2008C20.0441 14.9128 19.7401 14.6888 19.3347 14.5288C18.9401 14.3688 18.4387 14.2888 17.8307 14.2888C17.1161 14.2888 16.5294 14.3954 16.0707 14.6088C15.6121 14.8114 15.2654 15.0888 15.0307 15.4408C14.8067 15.7928 14.6734 16.1821 14.6307 16.6088H11.9107Z" fill="white"/>
</svg>
