<svg width="36" height="36" viewBox="0 0 36 36" fill="none" xmlns="http://www.w3.org/2000/svg">
<circle cx="17.6582" cy="17.877" r="17.5" fill="#2F3031"/>
<path d="M11.4902 15.669C11.5542 14.9116 11.8209 14.229 12.2902 13.621C12.7702 13.013 13.4475 12.533 14.3222 12.181C15.1969 11.8183 16.2475 11.637 17.4742 11.637C18.5515 11.637 19.4849 11.7756 20.2742 12.053C21.0635 12.3303 21.6769 12.7143 22.1142 13.205C22.5515 13.6956 22.7702 14.277 22.7702 14.949C22.7702 15.493 22.6049 15.989 22.2742 16.437C21.9542 16.8743 21.4529 17.2263 20.7702 17.493C20.0875 17.749 19.2235 17.8716 18.1782 17.861V17.557C19.1915 17.5036 20.0555 17.5836 20.7702 17.797C21.4955 17.9996 22.0555 18.3196 22.4502 18.757C22.8449 19.1943 23.0422 19.7436 23.0422 20.405C23.0422 21.1196 22.8129 21.7596 22.3542 22.325C21.9062 22.8796 21.2502 23.317 20.3862 23.637C19.5222 23.957 18.4715 24.117 17.2342 24.117C16.0289 24.117 14.9782 23.9463 14.0822 23.605C13.1862 23.2636 12.4875 22.7836 11.9862 22.165C11.4849 21.5463 11.2129 20.821 11.1702 19.989H13.8902C13.9755 20.629 14.2955 21.1196 14.8502 21.461C15.4049 21.8023 16.1995 21.973 17.2342 21.973C18.2369 21.973 18.9942 21.8183 19.5062 21.509C20.0182 21.1996 20.2742 20.7676 20.2742 20.213C20.2742 19.8823 20.1889 19.605 20.0182 19.381C19.8475 19.157 19.5542 18.9916 19.1382 18.885C18.7329 18.7676 18.1782 18.709 17.4742 18.709H15.3622V16.805H17.4742C18.3915 16.805 19.0475 16.6663 19.4422 16.389C19.8369 16.1116 20.0342 15.7543 20.0342 15.317C20.0342 14.8263 19.8102 14.4476 19.3622 14.181C18.9142 13.9143 18.2369 13.781 17.3302 13.781C16.4022 13.781 15.6769 13.9463 15.1542 14.277C14.6315 14.597 14.3169 15.061 14.2102 15.669H11.4902Z" fill="white"/>
</svg>
