<svg width="37" height="40" viewBox="0 0 37 40" fill="none" xmlns="http://www.w3.org/2000/svg">
<path d="M8.454 16.0103V25.0236C8.454 26.2223 7.53743 27.1797 6.37088 27.1797C5.21191 27.1797 4.09082 26.2145 4.09082 25.0236V16.0103C4.09082 14.835 5.21191 13.8698 6.37088 13.8698C7.5147 13.8698 8.454 14.835 8.454 16.0103ZM9.27209 28.2305C9.27209 29.507 10.272 30.5344 11.5143 30.5344H13.0217L13.0444 35.2902C13.0444 38.1623 17.2258 38.1389 17.2258 35.2902V30.5344H20.0437V35.2902C20.0437 38.1467 24.2478 38.1545 24.2478 35.2902V30.5344H25.7779C27.0051 30.5344 28.005 29.507 28.005 28.2305V14.2668H9.27209V28.2305ZM28.058 13.5118H9.18877C9.18877 10.1804 11.128 7.28491 14.0064 5.7749L12.5596 3.0273C12.3475 2.6459 12.8853 2.40461 13.0671 2.73152L14.5367 5.50247C17.1803 4.29602 20.2179 4.35829 22.7404 5.50247L24.2023 2.73931C24.3917 2.40461 24.922 2.65369 24.7099 3.03508L23.263 5.7749C26.1188 7.28491 28.058 10.1804 28.058 13.5118ZM15.1275 9.19188C15.1275 8.74822 14.7791 8.37461 14.3322 8.37461C13.9004 8.37461 13.5595 8.74822 13.5595 9.19188C13.5595 9.63554 13.908 10.0092 14.3322 10.0092C14.7791 10.0092 15.1275 9.63554 15.1275 9.19188ZM23.7175 9.19188C23.7175 8.74822 23.3691 8.37461 22.9449 8.37461C22.498 8.37461 22.1495 8.74822 22.1495 9.19188C22.1495 9.63554 22.498 10.0092 22.9449 10.0092C23.3691 10.0092 23.7175 9.63554 23.7175 9.19188ZM30.8986 13.8698C29.7548 13.8698 28.8155 14.8116 28.8155 16.0103V25.0236C28.8155 26.2223 29.7548 27.1797 30.8986 27.1797C32.0651 27.1797 33.1787 26.2145 33.1787 25.0236V16.0103C33.1787 14.8116 32.0576 13.8698 30.8986 13.8698Z" fill="white"/>
</svg>
