<svg width="30" height="34" viewBox="0 0 30 34" fill="none" xmlns="http://www.w3.org/2000/svg">
<path fill-rule="evenodd" clip-rule="evenodd" d="M20.2393 5.77605C21.5152 4.38182 22.3752 2.43993 22.1398 0.507812C20.3012 0.573812 18.0768 1.6152 16.7585 3.00779C15.5746 4.24362 14.5412 6.21829 14.819 8.11248C16.87 8.25601 18.9634 7.17192 20.2393 5.77605ZM24.8385 18.0391C24.8898 23.0335 29.6871 24.695 29.7402 24.7164C29.7013 24.8336 28.974 27.0837 27.2133 29.4102C25.6896 31.4199 24.1094 33.4214 21.6196 33.4643C19.174 33.5056 18.3865 32.1543 15.5888 32.1543C12.7928 32.1543 11.9187 33.4212 9.60403 33.5054C7.20092 33.5862 5.36939 31.3311 3.83515 29.328C0.695895 25.2311 -1.7019 17.7505 1.51876 12.7015C3.11847 10.1952 5.97636 8.60566 9.08023 8.56606C11.4391 8.52481 13.667 10.0001 15.1092 10.0001C16.5515 10.0001 19.2589 8.22641 22.1044 8.48711C23.2954 8.53166 26.6399 8.92092 28.7864 11.7605C28.613 11.8579 24.796 13.8646 24.8385 18.0391Z" fill="white"/>
</svg>
