<svg width="23" height="18" viewBox="0 0 23 18" fill="none" xmlns="http://www.w3.org/2000/svg">
<g clip-path="url(#clip0_353_245)">
<path d="M19.2176 1.39307C17.7986 0.745335 16.2917 0.273252 14.7188 0.00976562C14.5208 0.350106 14.3008 0.811203 14.1468 1.17351C12.4738 0.931966 10.8129 0.931966 9.16293 1.17351C9.00893 0.811203 8.77793 0.350106 8.59093 0.00976562C7.00704 0.273252 5.50011 0.745335 4.09108 1.39307C1.24222 5.5869 0.472257 9.68192 0.857239 13.7221C2.74914 15.0944 4.57507 15.9288 6.36908 16.4778C6.80906 15.8849 7.20505 15.2481 7.54604 14.5784C6.89706 14.3369 6.28109 14.0405 5.68712 13.6891C5.84111 13.5794 5.99511 13.4586 6.13811 13.3379C9.72393 14.9737 13.6079 14.9737 17.1496 13.3379C17.3036 13.4586 17.4466 13.5794 17.6006 13.6891C17.0066 14.0405 16.3907 14.3369 15.7417 14.5784C16.0827 15.2481 16.4787 15.8849 16.9186 16.4778C18.7116 15.9288 20.5485 15.0944 22.4305 13.7221C22.9034 9.0452 21.6814 4.98312 19.2176 1.39307ZM8.041 11.2299C6.96304 11.2299 6.08308 10.2529 6.08308 9.05618C6.08308 7.85952 6.94104 6.88237 8.041 6.88237C9.12993 6.88237 10.0209 7.85952 9.99886 9.05618C9.99886 10.2529 9.12993 11.2299 8.041 11.2299ZM15.2688 11.2299C14.1908 11.2299 13.3097 10.2529 13.3097 9.05618C13.3097 7.85952 14.1688 6.88237 15.2688 6.88237C16.3577 6.88237 17.2486 7.85952 17.2266 9.05618C17.2266 10.2529 16.3687 11.2299 15.2688 11.2299Z" fill="white"/>
</g>
<defs>
<clipPath id="clip0_353_245">
<rect width="22" height="17" fill="white" transform="translate(0.764893 0.00976562)"/>
</clipPath>
</defs>
</svg>
