<svg width="22" height="20" viewBox="0 0 22 20" fill="none" xmlns="http://www.w3.org/2000/svg">
<path fill-rule="evenodd" clip-rule="evenodd" d="M1.77991 0.359375C1.22762 0.359375 0.779907 0.80709 0.779907 1.35938C0.779907 1.91166 1.22762 2.35938 1.77991 2.35938H4.29356L4.95898 5.68402C4.96319 5.71051 4.96843 5.73665 4.97467 5.7624L6.36573 12.7125L6.36586 12.7132C6.48789 13.3268 6.82178 13.8779 7.30913 14.2703C7.79386 14.6605 8.39969 14.8688 9.02167 14.8594H17.1048C17.7268 14.8688 18.3326 14.6605 18.8174 14.2703C19.3049 13.8778 19.6388 13.3264 19.7607 12.7125L19.7608 12.7125L19.7622 12.705L21.0955 5.71337C21.1514 5.42062 21.0737 5.11822 20.8837 4.8886C20.6938 4.65897 20.4113 4.52604 20.1132 4.52604H6.76688L6.09379 1.16312C6.00025 0.69576 5.58987 0.359375 5.11324 0.359375H1.77991ZM8.32713 12.3215L7.16718 6.52604H18.9045L17.7985 12.3259C17.7675 12.4782 17.6843 12.6149 17.5632 12.7123C17.4413 12.8104 17.2888 12.8626 17.1324 12.8596L17.1132 12.8594H9.01324L8.99408 12.8596C8.83765 12.8626 8.68514 12.8104 8.56326 12.7123C8.44138 12.6142 8.3579 12.4764 8.32741 12.3229L8.32713 12.3215ZM8.44658 18.1934C8.53863 18.1934 8.61325 18.1187 8.61325 18.0267C8.61325 17.9346 8.53863 17.86 8.44658 17.86C8.35454 17.86 8.27992 17.9346 8.27992 18.0267C8.27992 18.1187 8.35454 18.1934 8.44658 18.1934ZM6.61325 18.0267C6.61325 17.0142 7.43406 16.1934 8.44658 16.1934C9.45911 16.1934 10.2799 17.0142 10.2799 18.0267C10.2799 19.0392 9.45911 19.86 8.44658 19.86C7.43406 19.86 6.61325 19.0392 6.61325 18.0267ZM17.6132 18.1934C17.7053 18.1934 17.7799 18.1187 17.7799 18.0267C17.7799 17.9346 17.7053 17.86 17.6132 17.86C17.5212 17.86 17.4466 17.9346 17.4466 18.0267C17.4466 18.1187 17.5212 18.1934 17.6132 18.1934ZM15.7799 18.0267C15.7799 17.0142 16.6007 16.1934 17.6132 16.1934C18.6258 16.1934 19.4466 17.0142 19.4466 18.0267C19.4466 19.0392 18.6258 19.86 17.6132 19.86C16.6007 19.86 15.7799 19.0392 15.7799 18.0267Z" fill="#DDFF48"/>
</svg>
