<svg width="144" height="50" viewBox="0 0 144 50" fill="none" xmlns="http://www.w3.org/2000/svg">
<path d="M24.9037 32.9757L22.8557 33.3917V13.6157H29.2877V37.6157H20.9357L7.07971 17.8717L9.09571 17.4557V37.6157H2.66371V13.6157H11.2397L24.9037 32.9757ZM54.2695 23.2157V28.0157H36.7015V23.2157H54.2695ZM41.2135 25.6157L39.6455 35.2477L36.9575 32.2397H55.3255V37.6157H33.0215L34.8455 25.6157L33.0215 13.6157H55.1655V18.9917H36.9575L39.6455 15.9837L41.2135 25.6157ZM73.3397 27.1517V23.1197L85.1157 37.6157H76.9557L69.1797 27.5677H72.4437L64.6357 37.6157H56.5717L68.4117 23.1517V27.1197L57.2757 13.6157H65.5637L72.6037 22.7037H69.3397L76.2837 13.6157H84.4437L73.3397 27.1517ZM116.888 29.7437H123.64C123.747 30.4051 124.056 30.9811 124.568 31.4717C125.08 31.9624 125.763 32.3464 126.616 32.6237C127.491 32.8797 128.515 33.0077 129.688 33.0077C131.31 33.0077 132.59 32.8051 133.528 32.3997C134.467 31.9731 134.936 31.3544 134.936 30.5437C134.936 29.9251 134.67 29.4451 134.136 29.1037C133.603 28.7624 132.579 28.5171 131.064 28.3677L126.584 27.9517C123.278 27.6531 120.878 26.9064 119.384 25.7117C117.891 24.4957 117.144 22.8637 117.144 20.8157C117.144 19.1517 117.624 17.7437 118.584 16.5917C119.566 15.4397 120.931 14.5757 122.68 13.9997C124.451 13.4024 126.51 13.1037 128.856 13.1037C131.16 13.1037 133.208 13.4344 135 14.0957C136.792 14.7357 138.211 15.6531 139.256 16.8477C140.323 18.0424 140.899 19.4291 140.984 21.0077H134.264C134.179 20.4317 133.902 19.9411 133.432 19.5357C132.984 19.1091 132.366 18.7891 131.576 18.5757C130.787 18.3411 129.838 18.2237 128.728 18.2237C127.235 18.2237 126.051 18.4264 125.176 18.8317C124.302 19.2157 123.864 19.7917 123.864 20.5597C123.864 21.1144 124.12 21.5624 124.632 21.9037C125.166 22.2451 126.115 22.4797 127.48 22.6077L132.248 23.0877C134.531 23.3011 136.355 23.6744 137.72 24.2077C139.086 24.7197 140.078 25.4344 140.696 26.3517C141.315 27.2691 141.624 28.4104 141.624 29.7757C141.624 31.4611 141.123 32.9331 140.12 34.1917C139.118 35.4291 137.71 36.3997 135.896 37.1037C134.083 37.7864 131.971 38.1277 129.56 38.1277C127.086 38.1277 124.899 37.7864 123 37.1037C121.123 36.3997 119.651 35.4184 118.584 34.1597C117.518 32.8797 116.952 31.4077 116.888 29.7437Z" fill="white"/>
<path d="M99.9943 14.1526C99.7521 14.4497 99.4618 15.1309 100.174 16.2589C100.568 16.8837 100.896 17.5467 101.133 18.2461C102.02 20.8279 101.695 23.612 100.427 25.9637C99.3153 28.0393 97.4817 29.771 95.1354 30.7112C93.8218 31.2305 92.4596 31.4921 91.0676 31.476C89.7145 31.4571 89.2371 32.036 89.0783 32.3757C88.9123 32.7308 88.7759 33.4644 89.739 34.4177C93.4809 38.0862 99.2939 38.9725 104.223 36.6462C108.853 34.4384 111.673 29.6737 111.553 24.888C111.526 23.7408 111.327 22.5984 110.943 21.4917C110.886 21.313 110.828 21.1343 110.76 20.9601C109.318 17.3136 106.146 14.6154 102.195 13.6855C100.835 13.3799 100.232 13.8445 99.9943 14.1526Z" fill="url(#paint0_linear_37_23)"/>
<defs>
<linearGradient id="paint0_linear_37_23" x1="88.0462" y1="30.8749" x2="111.079" y2="21.7693" gradientUnits="userSpaceOnUse">
<stop offset="0.364583" stop-color="#8BFDFE"/>
<stop offset="0.927083" stop-color="#A600FF"/>
</linearGradient>
</defs>
</svg>
