<svg width="17" height="15" viewBox="0 0 17 15" fill="none" xmlns="http://www.w3.org/2000/svg">
<g clip-path="url(#clip0_327_26)">
<path d="M16.9475 2.93744C16.3525 3.19844 15.7185 3.37144 15.0575 3.45544C15.7375 3.04944 16.2565 2.41144 16.5005 1.64244C15.8665 2.02044 15.1665 2.28744 14.4205 2.43644C13.8185 1.79544 12.9605 1.39844 12.0245 1.39844C10.2085 1.39844 8.74651 2.87244 8.74651 4.67944C8.74651 4.93944 8.76851 5.18944 8.82251 5.42744C6.09551 5.29444 3.68251 3.98744 2.06151 1.99644C1.77851 2.48744 1.61251 3.04944 1.61251 3.65444C1.61251 4.79044 2.19751 5.79744 3.06951 6.38044C2.54251 6.37044 2.02551 6.21744 1.58751 5.97644C1.58751 5.98644 1.58751 5.99944 1.58751 6.01244C1.58751 7.60644 2.72451 8.93044 4.21551 9.23544C3.94851 9.30844 3.65751 9.34344 3.35551 9.34344C3.14551 9.34344 2.93351 9.33144 2.73451 9.28744C3.15951 10.5864 4.36551 11.5414 5.79951 11.5724C4.68351 12.4454 3.26651 12.9714 1.73251 12.9714C1.46351 12.9714 1.20551 12.9594 0.94751 12.9264C2.40051 13.8634 4.12251 14.3984 5.97951 14.3984C12.0155 14.3984 15.3155 9.39844 15.3155 5.06444C15.3155 4.91944 15.3105 4.77944 15.3035 4.64044C15.9545 4.17844 16.5015 3.60144 16.9475 2.93744Z" fill="white"/>
</g>
<defs>
<clipPath id="clip0_327_26">
<rect width="16" height="14" fill="white" transform="translate(0.94751 0.898438)"/>
</clipPath>
</defs>
</svg>
