<svg width="18" height="14" viewBox="0 0 18 14" fill="none" xmlns="http://www.w3.org/2000/svg">
<g clip-path="url(#clip0_327_30)">
<path d="M16.7746 2.74347C16.5808 2.02277 16.0126 1.45465 15.292 1.26059C13.9755 0.900391 8.70959 0.900391 8.70959 0.900391C8.70959 0.900391 3.44391 0.900391 2.12747 1.24693C1.42073 1.44079 0.838636 2.02287 0.644779 2.74347C0.29834 4.05981 0.29834 6.78974 0.29834 6.78974C0.29834 6.78974 0.29834 9.53342 0.644779 10.836C0.838842 11.5566 1.40686 12.1247 2.12757 12.3188C3.45777 12.6791 8.7098 12.6791 8.7098 12.6791C8.7098 12.6791 13.9755 12.6791 15.292 12.3326C16.0127 12.1386 16.5808 11.5705 16.7748 10.8499C17.1212 9.53342 17.1212 6.8036 17.1212 6.8036C17.1212 6.8036 17.135 4.05981 16.7746 2.74347ZM7.03305 9.31174V4.26774L11.4119 6.78974L7.03305 9.31174Z" fill="white"/>
</g>
<defs>
<clipPath id="clip0_327_30">
<rect width="17" height="13" fill="white" transform="translate(0.218506 0.808594)"/>
</clipPath>
</defs>
</svg>
