<svg width="23" height="18" viewBox="0 0 23 18" fill="none" xmlns="http://www.w3.org/2000/svg">
<g clip-path="url(#clip0_327_28)">
<path d="M18.6292 1.78174C17.2102 1.13401 15.7033 0.661923 14.1304 0.398438C13.9324 0.738777 13.7124 1.19987 13.5584 1.56218C11.8854 1.32064 10.2245 1.32064 8.57455 1.56218C8.42055 1.19987 8.18955 0.738777 8.00255 0.398438C6.41866 0.661923 4.91173 1.13401 3.5027 1.78174C0.653844 5.97557 -0.116122 10.0706 0.26886 14.1107C2.16076 15.483 3.98669 16.3174 5.7807 16.8664C6.22068 16.2735 6.61667 15.6367 6.95766 14.967C6.30868 14.7255 5.69271 14.4291 5.09874 14.0777C5.25273 13.968 5.40673 13.8472 5.54973 13.7265C9.13555 15.3623 13.0195 15.3623 16.5612 13.7265C16.7152 13.8472 16.8582 13.968 17.0122 14.0777C16.4182 14.4291 15.8023 14.7255 15.1533 14.967C15.4943 15.6367 15.8903 16.2735 16.3302 16.8664C18.1232 16.3174 19.9601 15.483 21.8421 14.1107C22.315 9.43387 21.093 5.37179 18.6292 1.78174ZM7.45262 11.6185C6.37466 11.6185 5.4947 10.6415 5.4947 9.44485C5.4947 8.24819 6.35266 7.27104 7.45262 7.27104C8.54155 7.27104 9.43248 8.24819 9.41048 9.44485C9.41048 10.6415 8.54155 11.6185 7.45262 11.6185ZM14.6804 11.6185C13.6024 11.6185 12.7213 10.6415 12.7213 9.44485C12.7213 8.24819 13.5804 7.27104 14.6804 7.27104C15.7693 7.27104 16.6602 8.24819 16.6382 9.44485C16.6382 10.6415 15.7803 11.6185 14.6804 11.6185Z" fill="white"/>
</g>
<defs>
<clipPath id="clip0_327_28">
<rect width="22" height="17" fill="white" transform="translate(0.176514 0.398438)"/>
</clipPath>
</defs>
</svg>
