<svg width="21" height="21" viewBox="0 0 21 21" fill="none" xmlns="http://www.w3.org/2000/svg">
<g clip-path="url(#clip0_327_32)">
<path d="M10.848 0.649688C11.9386 0.632812 13.023 0.642813 14.1061 0.632812C14.1718 1.90844 14.6305 3.20781 15.5643 4.10969C16.4961 5.03406 17.8143 5.45719 19.0968 5.60031V8.95594C17.8949 8.91656 16.6874 8.66656 15.5968 8.14906C15.1218 7.93406 14.6793 7.65719 14.2461 7.37406C14.2405 9.80906 14.2561 12.2409 14.2305 14.6659C14.1655 15.8309 13.7811 16.9903 13.1036 17.9503C12.0136 19.5484 10.1218 20.5903 8.17864 20.6228C6.98676 20.6909 5.79614 20.3659 4.78051 19.7672C3.09739 18.7747 1.91301 16.9578 1.74051 15.0078C1.72051 14.5909 1.71364 14.1747 1.73051 13.7678C1.88051 12.1822 2.66489 10.6653 3.88239 9.63344C5.26239 8.43156 7.19551 7.85906 9.00551 8.19781C9.02239 9.43219 8.97301 10.6653 8.97301 11.8997C8.14614 11.6322 7.17989 11.7072 6.45739 12.2091C5.92989 12.5509 5.52926 13.0747 5.32051 13.6672C5.14801 14.0897 5.19739 14.5591 5.20739 15.0078C5.40551 16.3753 6.72051 17.5247 8.12426 17.4003C9.05489 17.3903 9.94676 16.8503 10.4318 16.0597C10.5886 15.7828 10.7643 15.4997 10.7736 15.1741C10.8555 13.6834 10.823 12.1991 10.833 10.7084C10.8399 7.34906 10.823 3.99906 10.8486 0.650313L10.848 0.649688Z" fill="white"/>
</g>
<defs>
<clipPath id="clip0_327_32">
<rect width="20" height="20" fill="white" transform="translate(0.405518 0.632812)"/>
</clipPath>
</defs>
</svg>
