<svg width="21" height="25" viewBox="0 0 21 25" fill="none" xmlns="http://www.w3.org/2000/svg">
<path fill-rule="evenodd" clip-rule="evenodd" d="M10.8884 0.647461C9.90344 0.647461 8.25612 1.0504 6.70508 1.49732C5.11923 1.95428 3.52152 2.49191 2.58168 2.81791C1.79736 3.08996 1.20412 3.82669 1.09019 4.73555C0.237867 11.5346 2.2142 16.5723 4.61129 19.9058C5.80532 21.5662 7.10305 22.8037 8.20713 23.6314C8.75877 24.0449 9.27004 24.362 9.70421 24.5793C10.1054 24.78 10.5346 24.9443 10.8884 24.9443C11.2423 24.9443 11.6715 24.78 12.0727 24.5793C12.5068 24.362 13.0181 24.0449 13.5697 23.6314C14.6738 22.8037 15.9715 21.5662 17.1656 19.9058C19.5626 16.5723 21.539 11.5346 20.6867 4.73555C20.5727 3.82669 19.9795 3.08996 19.1952 2.81791C18.2553 2.49191 16.6576 1.95428 15.0718 1.49732C13.5207 1.0504 11.8734 0.647461 10.8884 0.647461ZM13.9547 8.46262C14.2336 8.16611 14.6859 8.16611 14.9648 8.46262C15.2438 8.75914 15.2438 9.23989 14.9648 9.5364L10.6791 14.0921C10.5452 14.2345 10.3635 14.3145 10.174 14.3145C9.9846 14.3145 9.80292 14.2345 9.66896 14.0921L7.5261 11.8142C7.24716 11.5177 7.24716 11.037 7.5261 10.7405C7.80505 10.4439 8.25731 10.4439 8.53626 10.7405L10.174 12.4814L13.9547 8.46262Z" fill="#DDFF48"/>
</svg>
